# This file uses centimeters as units for non-parametric coordinates.

mtllib 20180903_jingwen_large.mtl
g default
v -0.17246711999999997 -0.03 1.3723121800000002
v 0.28346363 -0.03 1.596346
v -0.17246711999999997 0.48 1.3723121800000002
v 0.28346363 0.48 1.596346
v 0.05156669 0.48 0.9163814299999999
v 0.50749744 0.48 1.14041524
v 0.05156669 -0.03 0.9163814299999999
v 0.50749744 -0.03 1.14041524
vt 0.375000 0.000000
vt 0.625000 0.000000
vt 0.375000 0.250000
vt 0.625000 0.250000
vt 0.375000 0.500000
vt 0.625000 0.500000
vt 0.375000 0.750000
vt 0.625000 0.750000
vt 0.375000 1.000000
vt 0.625000 1.000000
vt 0.875000 0.000000
vt 0.875000 0.250000
vt 0.125000 0.000000
vt 0.125000 0.250000
vn -0.441011 0.000000 0.897501
vn -0.441011 0.000000 0.897501
vn -0.441011 0.000000 0.897501
vn -0.441011 0.000000 0.897501
vn 0.000000 1.000000 0.000000
vn 0.000000 1.000000 0.000000
vn 0.000000 1.000000 0.000000
vn 0.000000 1.000000 0.000000
vn 0.441011 0.000000 -0.897501
vn 0.441011 0.000000 -0.897501
vn 0.441011 0.000000 -0.897501
vn 0.441011 0.000000 -0.897501
vn 0.000000 -1.000000 0.000000
vn 0.000000 -1.000000 0.000000
vn 0.000000 -1.000000 0.000000
vn 0.000000 -1.000000 0.000000
vn 0.897501 0.000000 0.441011
vn 0.897501 0.000000 0.441011
vn 0.897501 0.000000 0.441011
vn 0.897501 0.000000 0.441011
vn -0.897501 0.000000 -0.441011
vn -0.897501 0.000000 -0.441011
vn -0.897501 0.000000 -0.441011
vn -0.897501 0.000000 -0.441011
s off
g pCube1
usemtl initialShadingGroup
f 1/1/1 2/2/2 4/4/3 3/3/4
f 3/3/5 4/4/6 6/6/7 5/5/8
f 5/5/9 6/6/10 8/8/11 7/7/12
f 7/7/13 8/8/14 2/10/15 1/9/16
f 2/2/17 8/11/18 6/12/19 4/4/20
f 7/13/21 1/1/22 3/3/23 5/14/24
g default
v 1.04910743 -0.03 0.90413953
v 2.74687741 -0.03 0.19999389
v 1.04910743 0.13 0.90413953
v 2.74687741 0.13 0.19999389
v 0.58248643 0.13 -0.22093328
v 2.2802564100000002 0.13 -0.92507893
v 0.58248643 -0.03 -0.22093328
v 2.2802564100000002 -0.03 -0.92507893
vt 0.375000 0.000000
vt 0.625000 0.000000
vt 0.375000 0.250000
vt 0.625000 0.250000
vt 0.375000 0.500000
vt 0.625000 0.500000
vt 0.375000 0.750000
vt 0.625000 0.750000
vt 0.375000 1.000000
vt 0.625000 1.000000
vt 0.875000 0.000000
vt 0.875000 0.250000
vt 0.125000 0.000000
vt 0.125000 0.250000
vn 0.383104 0.000000 0.923705
vn 0.383104 0.000000 0.923705
vn 0.383104 0.000000 0.923705
vn 0.383104 0.000000 0.923705
vn 0.000000 1.000000 0.000000
vn 0.000000 1.000000 0.000000
vn 0.000000 1.000000 0.000000
vn 0.000000 1.000000 0.000000
vn -0.383104 0.000000 -0.923705
vn -0.383104 0.000000 -0.923705
vn -0.383104 0.000000 -0.923705
vn -0.383104 0.000000 -0.923705
vn 0.000000 -1.000000 0.000000
vn 0.000000 -1.000000 0.000000
vn 0.000000 -1.000000 0.000000
vn 0.000000 -1.000000 0.000000
vn 0.923705 0.000000 -0.383104
vn 0.923705 0.000000 -0.383104
vn 0.923705 0.000000 -0.383104
vn 0.923705 0.000000 -0.383104
vn -0.923705 0.000000 0.383104
vn -0.923705 0.000000 0.383104
vn -0.923705 0.000000 0.383104
vn -0.923705 0.000000 0.383104
s off
g pCube2
usemtl initialShadingGroup
f 9/15/25 10/16/26 12/18/27 11/17/28
f 11/17/29 12/18/30 14/20/31 13/19/32
f 13/19/33 14/20/34 16/22/35 15/21/36
f 15/21/37 16/22/38 10/24/39 9/23/40
f 10/16/41 16/25/42 14/26/43 12/18/44
f 15/27/45 9/15/46 11/17/47 13/28/48
g default
v 1.33978476 0.13 0.79577137
v 2.73878988 0.13 0.20147795
v 1.33978476 0.284 0.79577137
v 2.73878988 0.284 0.20147795
v 0.8627861 0.284 -0.32711433
v 2.26179122 0.284 -0.9214077399999999
v 0.8627861 0.13 -0.32711433
v 2.26179122 0.13 -0.9214077399999999
vt 0.375000 0.000000
vt 0.625000 0.000000
vt 0.375000 0.250000
vt 0.625000 0.250000
vt 0.375000 0.500000
vt 0.625000 0.500000
vt 0.375000 0.750000
vt 0.625000 0.750000
vt 0.375000 1.000000
vt 0.625000 1.000000
vt 0.875000 0.000000
vt 0.875000 0.250000
vt 0.125000 0.000000
vt 0.125000 0.250000
vn 0.390982 0.000000 0.920398
vn 0.390982 0.000000 0.920398
vn 0.390982 0.000000 0.920398
vn 0.390982 0.000000 0.920398
vn 0.000000 1.000000 0.000000
vn 0.000000 1.000000 0.000000
vn 0.000000 1.000000 0.000000
vn 0.000000 1.000000 0.000000
vn -0.390982 0.000000 -0.920398
vn -0.390982 0.000000 -0.920398
vn -0.390982 0.000000 -0.920398
vn -0.390982 0.000000 -0.920398
vn 0.000000 -1.000000 0.000000
vn 0.000000 -1.000000 0.000000
vn 0.000000 -1.000000 0.000000
vn 0.000000 -1.000000 0.000000
vn 0.920398 0.000000 -0.390983
vn 0.920398 0.000000 -0.390983
vn 0.920398 0.000000 -0.390983
vn 0.920398 0.000000 -0.390983
vn -0.920398 0.000000 0.390983
vn -0.920398 0.000000 0.390983
vn -0.920398 0.000000 0.390983
vn -0.920398 0.000000 0.390983
s off
g pCube3
usemtl initialShadingGroup
f 17/29/49 18/30/50 20/32/51 19/31/52
f 19/31/53 20/32/54 22/34/55 21/33/56
f 21/33/57 22/34/58 24/36/59 23/35/60
f 23/35/61 24/36/62 18/38/63 17/37/64
f 18/30/65 24/39/66 22/40/67 20/32/68
f 23/41/69 17/29/70 19/31/71 21/42/72
g default
v 2.03039719 0.284 -0.32452405
v 2.45022497 0.284 -0.49200130999999997
v 2.03039719 0.892 -0.32452405
v 2.45022497 0.892 -0.49200130999999997
v 1.86329045 0.892 -0.743423
v 2.28311823 0.892 -0.9109002700000001
v 1.86329045 0.284 -0.743423
v 2.28311823 0.284 -0.9109002700000001
vt 0.375000 0.000000
vt 0.625000 0.000000
vt 0.375000 0.250000
vt 0.625000 0.250000
vt 0.375000 0.500000
vt 0.625000 0.500000
vt 0.375000 0.750000
vt 0.625000 0.750000
vt 0.375000 1.000000
vt 0.625000 1.000000
vt 0.875000 0.000000
vt 0.875000 0.250000
vt 0.125000 0.000000
vt 0.125000 0.250000
vn 0.370525 0.000000 0.928823
vn 0.370525 0.000000 0.928823
vn 0.370525 0.000000 0.928823
vn 0.370525 0.000000 0.928823
vn 0.000000 1.000000 0.000000
vn 0.000000 1.000000 0.000000
vn 0.000000 1.000000 0.000000
vn 0.000000 1.000000 0.000000
vn -0.370525 0.000000 -0.928823
vn -0.370525 0.000000 -0.928823
vn -0.370525 0.000000 -0.928823
vn -0.370525 0.000000 -0.928823
vn 0.000000 -1.000000 0.000000
vn 0.000000 -1.000000 0.000000
vn 0.000000 -1.000000 0.000000
vn 0.000000 -1.000000 0.000000
vn 0.928823 0.000000 -0.370525
vn 0.928823 0.000000 -0.370525
vn 0.928823 0.000000 -0.370525
vn 0.928823 0.000000 -0.370525
vn -0.928823 0.000000 0.370525
vn -0.928823 0.000000 0.370525
vn -0.928823 0.000000 0.370525
vn -0.928823 0.000000 0.370525
s off
g pCube4
usemtl initialShadingGroup
f 25/43/73 26/44/74 28/46/75 27/45/76
f 27/45/77 28/46/78 30/48/79 29/47/80
f 29/47/81 30/48/82 32/50/83 31/49/84
f 31/49/85 32/50/86 26/52/87 25/51/88
f 26/44/89 32/53/90 30/54/91 28/46/92
f 31/55/93 25/43/94 27/45/95 29/56/96
g default
v -2.31649387 -0.03 0.26209282
v -0.88179182 -0.03 0.77905998
v -2.31649387 0.124 0.26209282
v -0.88179182 0.124 0.77905998
v -1.90292014 0.124 -0.88566882
v -0.46821809000000003 0.124 -0.36870165
v -1.90292014 -0.03 -0.88566882
v -0.46821809000000003 -0.03 -0.36870165
vt 0.375000 0.000000
vt 0.625000 0.000000
vt 0.375000 0.250000
vt 0.625000 0.250000
vt 0.375000 0.500000
vt 0.625000 0.500000
vt 0.375000 0.750000
vt 0.625000 0.750000
vt 0.375000 1.000000
vt 0.625000 1.000000
vt 0.875000 0.000000
vt 0.875000 0.250000
vt 0.125000 0.000000
vt 0.125000 0.250000
vn -0.338995 0.000000 0.940788
vn -0.338995 0.000000 0.940788
vn -0.338995 0.000000 0.940788
vn -0.338995 0.000000 0.940788
vn 0.000000 1.000000 0.000000
vn 0.000000 1.000000 0.000000
vn 0.000000 1.000000 0.000000
vn 0.000000 1.000000 0.000000
vn 0.338995 0.000000 -0.940788
vn 0.338995 0.000000 -0.940788
vn 0.338995 0.000000 -0.940788
vn 0.338995 0.000000 -0.940788
vn 0.000000 -1.000000 0.000000
vn 0.000000 -1.000000 0.000000
vn 0.000000 -1.000000 0.000000
vn 0.000000 -1.000000 0.000000
vn 0.940788 0.000000 0.338995
vn 0.940788 0.000000 0.338995
vn 0.940788 0.000000 0.338995
vn 0.940788 0.000000 0.338995
vn -0.940788 0.000000 -0.338995
vn -0.940788 0.000000 -0.338995
vn -0.940788 0.000000 -0.338995
vn -0.940788 0.000000 -0.338995
s off
g pCube5
usemtl initialShadingGroup
f 33/57/97 34/58/98 36/60/99 35/59/100
f 35/59/101 36/60/102 38/62/103 37/61/104
f 37/61/105 38/62/106 40/64/107 39/63/108
f 39/63/109 40/64/110 34/66/111 33/65/112
f 34/58/113 40/67/114 38/68/115 36/60/116
f 39/69/117 33/57/118 35/59/119 37/70/120
g default
v -2.21352691 0.127 -0.007231100000000001
v -1.06967523 0.127 0.40539383
v -2.21352691 0.287 -0.007231100000000001
v -1.06967523 0.287 0.40539383
v -1.9037188900000002 0.287 -0.86606053
v -0.75986721 0.287 -0.45343559999999994
v -1.9037188900000002 0.127 -0.86606053
v -0.75986721 0.127 -0.45343559999999994
vt 0.375000 0.000000
vt 0.625000 0.000000
vt 0.375000 0.250000
vt 0.625000 0.250000
vt 0.375000 0.500000
vt 0.625000 0.500000
vt 0.375000 0.750000
vt 0.625000 0.750000
vt 0.375000 1.000000
vt 0.625000 1.000000
vt 0.875000 0.000000
vt 0.875000 0.250000
vt 0.125000 0.000000
vt 0.125000 0.250000
vn -0.339330 0.000000 0.940668
vn -0.339330 0.000000 0.940668
vn -0.339330 0.000000 0.940668
vn -0.339330 0.000000 0.940668
vn 0.000000 1.000000 0.000000
vn 0.000000 1.000000 0.000000
vn 0.000000 1.000000 0.000000
vn 0.000000 1.000000 0.000000
vn 0.339330 0.000000 -0.940668
vn 0.339330 0.000000 -0.940668
vn 0.339330 0.000000 -0.940668
vn 0.339330 0.000000 -0.940668
vn 0.000000 -1.000000 0.000000
vn 0.000000 -1.000000 0.000000
vn 0.000000 -1.000000 0.000000
vn 0.000000 -1.000000 0.000000
vn 0.940668 0.000000 0.339330
vn 0.940668 0.000000 0.339330
vn 0.940668 0.000000 0.339330
vn 0.940668 0.000000 0.339330
vn -0.940668 0.000000 -0.339330
vn -0.940668 0.000000 -0.339330
vn -0.940668 0.000000 -0.339330
vn -0.940668 0.000000 -0.339330
s off
g pCube6
usemtl initialShadingGroup
f 41/71/121 42/72/122 44/74/123 43/73/124
f 43/73/125 44/74/126 46/76/127 45/75/128
f 45/75/129 46/76/130 48/78/131 47/77/132
f 47/77/133 48/78/134 42/80/135 41/79/136
f 42/72/137 48/81/138 46/82/139 44/74/140
f 47/83/141 41/71/142 43/73/143 45/84/144
g default
v -1.6325039000000001 0.284 -0.29142697
v -1.20375772 0.284 -0.14211954000000002
v -1.6325039000000001 1.198 -0.29142697
v -1.20375772 1.198 -0.14211954000000002
v -1.48451196 1.198 -0.71639566
v -1.05576577 1.198 -0.56708823
v -1.48451196 0.284 -0.71639566
v -1.05576577 0.284 -0.56708823
vt 0.375000 0.000000
vt 0.625000 0.000000
vt 0.375000 0.250000
vt 0.625000 0.250000
vt 0.375000 0.500000
vt 0.625000 0.500000
vt 0.375000 0.750000
vt 0.625000 0.750000
vt 0.375000 1.000000
vt 0.625000 1.000000
vt 0.875000 0.000000
vt 0.875000 0.250000
vt 0.125000 0.000000
vt 0.125000 0.250000
vn -0.328871 0.000000 0.944375
vn -0.328871 0.000000 0.944375
vn -0.328871 0.000000 0.944375
vn -0.328871 0.000000 0.944375
vn 0.000000 1.000000 0.000000
vn 0.000000 1.000000 0.000000
vn 0.000000 1.000000 0.000000
vn 0.000000 1.000000 0.000000
vn 0.328871 0.000000 -0.944375
vn 0.328871 0.000000 -0.944375
vn 0.328871 0.000000 -0.944375
vn 0.328871 0.000000 -0.944375
vn 0.000000 -1.000000 0.000000
vn 0.000000 -1.000000 0.000000
vn 0.000000 -1.000000 0.000000
vn 0.000000 -1.000000 0.000000
vn 0.944375 0.000000 0.328871
vn 0.944375 0.000000 0.328871
vn 0.944375 0.000000 0.328871
vn 0.944375 0.000000 0.328871
vn -0.944375 0.000000 -0.328871
vn -0.944375 0.000000 -0.328871
vn -0.944375 0.000000 -0.328871
vn -0.944375 0.000000 -0.328871
s off
g pCube7
usemtl initialShadingGroup
f 49/85/145 50/86/146 52/88/147 51/87/148
f 51/87/149 52/88/150 54/90/151 53/89/152
f 53/89/153 54/90/154 56/92/155 55/91/156
f 55/91/157 56/92/158 50/94/159 49/93/160
f 50/86/161 56/95/162 54/96/163 52/88/164
f 55/97/165 49/85/166 51/87/167 53/98/168
g default
v -1.72957917 0.284 -0.0194926
v -1.48094014 0.284 -0.73237662
v -1.72957917 0.738 -0.0194926
v -1.48094014 0.738 -0.73237662
v -2.15542115 0.738 -0.16801737
v -1.90678212 0.738 -0.8809014000000001
v -2.15542115 0.284 -0.16801737
v -1.90678212 0.284 -0.8809014000000001
vt 0.375000 0.000000
vt 0.625000 0.000000
vt 0.375000 0.250000
vt 0.625000 0.250000
vt 0.375000 0.500000
vt 0.625000 0.500000
vt 0.375000 0.750000
vt 0.625000 0.750000
vt 0.375000 1.000000
vt 0.625000 1.000000
vt 0.875000 0.000000
vt 0.875000 0.250000
vt 0.125000 0.000000
vt 0.125000 0.250000
vn 0.944217 0.000000 0.329323
vn 0.944217 0.000000 0.329323
vn 0.944217 0.000000 0.329323
vn 0.944217 0.000000 0.329323
vn 0.000000 1.000000 0.000000
vn 0.000000 1.000000 0.000000
vn 0.000000 1.000000 0.000000
vn 0.000000 1.000000 0.000000
vn -0.944217 0.000000 -0.329323
vn -0.944217 0.000000 -0.329323
vn -0.944217 0.000000 -0.329323
vn -0.944217 0.000000 -0.329323
vn 0.000000 -1.000000 0.000000
vn 0.000000 -1.000000 0.000000
vn 0.000000 -1.000000 0.000000
vn 0.000000 -1.000000 0.000000
vn 0.329323 0.000000 -0.944217
vn 0.329323 0.000000 -0.944217
vn 0.329323 0.000000 -0.944217
vn 0.329323 0.000000 -0.944217
vn -0.329323 0.000000 0.944217
vn -0.329323 0.000000 0.944217
vn -0.329323 0.000000 0.944217
vn -0.329323 0.000000 0.944217
s off
g pCube8
usemtl initialShadingGroup
f 57/99/169 58/100/170 60/102/171 59/101/172
f 59/101/173 60/102/174 62/104/175 61/103/176
f 61/103/177 62/104/178 64/106/179 63/105/180
f 63/105/181 64/106/182 58/108/183 57/107/184
f 58/100/185 64/109/186 62/110/187 60/102/188
f 63/111/189 57/99/190 59/101/191 61/112/192
g default
v -2.9608883667 -0.035 2.9412823486
v 2.9608883667 -0.035 2.9412823486
v -2.9608883667 -0.025 2.9412823486
v 2.9608883667 -0.025 2.9412823486
v -2.9608883667 -0.025 -2.9412823486
v 2.9608883667 -0.025 -2.9412823486
v -2.9608883667 -0.035 -2.9412823486
v 2.9608883667 -0.035 -2.9412823486
vt 0.375000 0.000000
vt 0.625000 0.000000
vt 0.375000 0.250000
vt 0.625000 0.250000
vt 0.375000 0.500000
vt 0.625000 0.500000
vt 0.375000 0.750000
vt 0.625000 0.750000
vt 0.375000 1.000000
vt 0.625000 1.000000
vt 0.875000 0.000000
vt 0.875000 0.250000
vt 0.125000 0.000000
vt 0.125000 0.250000
vn 0.000000 0.000000 1.000000
vn 0.000000 0.000000 1.000000
vn 0.000000 0.000000 1.000000
vn 0.000000 0.000000 1.000000
vn 0.000000 1.000000 0.000000
vn 0.000000 1.000000 0.000000
vn 0.000000 1.000000 0.000000
vn 0.000000 1.000000 0.000000
vn 0.000000 0.000000 -1.000000
vn 0.000000 0.000000 -1.000000
vn 0.000000 0.000000 -1.000000
vn 0.000000 0.000000 -1.000000
vn 0.000000 -1.000000 0.000000
vn 0.000000 -1.000000 0.000000
vn 0.000000 -1.000000 0.000000
vn 0.000000 -1.000000 0.000000
vn 1.000000 0.000000 0.000000
vn 1.000000 0.000000 0.000000
vn 1.000000 0.000000 0.000000
vn 1.000000 0.000000 0.000000
vn -1.000000 0.000000 0.000000
vn -1.000000 0.000000 0.000000
vn -1.000000 0.000000 0.000000
vn -1.000000 0.000000 0.000000
s off
g pCube9
usemtl initialShadingGroup
f 65/113/193 66/114/194 68/116/195 67/115/196
f 67/115/197 68/116/198 70/118/199 69/117/200
f 69/117/201 70/118/202 72/120/203 71/119/204
f 71/119/205 72/120/206 66/122/207 65/121/208
f 66/114/209 72/123/210 70/124/211 68/116/212
f 71/125/213 65/113/214 67/115/215 69/126/216
