# This file uses centimeters as units for non-parametric coordinates.

mtllib 20180831_liyan_new_large.mtl
g default
v -1.62728141 -0.03 -1.06796615
v -0.88638414 -0.03 -0.10374251
v -1.62728141 0.13 -1.06796615
v -0.88638414 0.13 -0.10374251
v -0.9033207400000001 0.13 -1.6242484
v -0.16242346000000002 0.13 -0.66002476
v -0.9033207400000001 -0.03 -1.6242484
v -0.16242346000000002 -0.03 -0.66002476
vt 0.375000 0.000000
vt 0.625000 0.000000
vt 0.375000 0.250000
vt 0.625000 0.250000
vt 0.375000 0.500000
vt 0.625000 0.500000
vt 0.375000 0.750000
vt 0.625000 0.750000
vt 0.375000 1.000000
vt 0.625000 1.000000
vt 0.875000 0.000000
vt 0.875000 0.250000
vt 0.125000 0.000000
vt 0.125000 0.250000
vn -0.792947 0.000000 0.609291
vn -0.792947 0.000000 0.609291
vn -0.792947 0.000000 0.609291
vn -0.792947 0.000000 0.609291
vn 0.000000 1.000000 0.000000
vn 0.000000 1.000000 0.000000
vn 0.000000 1.000000 0.000000
vn 0.000000 1.000000 0.000000
vn 0.792947 0.000000 -0.609291
vn 0.792947 0.000000 -0.609291
vn 0.792947 0.000000 -0.609291
vn 0.792947 0.000000 -0.609291
vn 0.000000 -1.000000 0.000000
vn 0.000000 -1.000000 0.000000
vn 0.000000 -1.000000 0.000000
vn 0.000000 -1.000000 0.000000
vn 0.609290 0.000000 0.792947
vn 0.609290 0.000000 0.792947
vn 0.609290 0.000000 0.792947
vn 0.609290 0.000000 0.792947
vn -0.609290 0.000000 -0.792947
vn -0.609290 0.000000 -0.792947
vn -0.609290 0.000000 -0.792947
vn -0.609290 0.000000 -0.792947
s off
g pCube1
usemtl initialShadingGroup
f 1/1/1 2/2/2 4/4/3 3/3/4
f 3/3/5 4/4/6 6/6/7 5/5/8
f 5/5/9 6/6/10 8/8/11 7/7/12
f 7/7/13 8/8/14 2/10/15 1/9/16
f 2/2/17 8/11/18 6/12/19 4/4/20
f 7/13/21 1/1/22 3/3/23 5/14/24
g default
v -2.34803475 -0.03 -0.50064805
v -1.60542575 -0.03 0.46225790000000005
v -2.34803475 0.13 -0.50064805
v -1.60542575 0.13 0.46225790000000005
v -1.62427156 0.13 -1.0588262
v -0.8816625600000001 0.13 -0.09592024
v -1.62427156 -0.03 -1.0588262
v -0.8816625600000001 -0.03 -0.09592024
vt 0.375000 0.000000
vt 0.625000 0.000000
vt 0.375000 0.250000
vt 0.625000 0.250000
vt 0.375000 0.500000
vt 0.625000 0.500000
vt 0.375000 0.750000
vt 0.625000 0.750000
vt 0.375000 1.000000
vt 0.625000 1.000000
vt 0.875000 0.000000
vt 0.875000 0.250000
vt 0.125000 0.000000
vt 0.125000 0.250000
vn -0.791863 0.000000 0.610698
vn -0.791863 0.000000 0.610698
vn -0.791863 0.000000 0.610698
vn -0.791863 0.000000 0.610698
vn 0.000000 1.000000 0.000000
vn 0.000000 1.000000 0.000000
vn 0.000000 1.000000 0.000000
vn 0.000000 1.000000 0.000000
vn 0.791863 0.000000 -0.610698
vn 0.791863 0.000000 -0.610698
vn 0.791863 0.000000 -0.610698
vn 0.791863 0.000000 -0.610698
vn 0.000000 -1.000000 0.000000
vn 0.000000 -1.000000 0.000000
vn 0.000000 -1.000000 0.000000
vn 0.000000 -1.000000 0.000000
vn 0.610698 0.000000 0.791863
vn 0.610698 0.000000 0.791863
vn 0.610698 0.000000 0.791863
vn 0.610698 0.000000 0.791863
vn -0.610698 0.000000 -0.791863
vn -0.610698 0.000000 -0.791863
vn -0.610698 0.000000 -0.791863
vn -0.610698 0.000000 -0.791863
s off
g pCube2
usemtl initialShadingGroup
f 9/15/25 10/16/26 12/18/27 11/17/28
f 11/17/29 12/18/30 14/20/31 13/19/32
f 13/19/33 14/20/34 16/22/35 15/21/36
f 15/21/37 16/22/38 10/24/39 9/23/40
f 10/16/41 16/25/42 14/26/43 12/18/44
f 15/27/45 9/15/46 11/17/47 13/28/48
g default
v -1.61888402 0.13 0.45064469
v -0.40423226999999995 0.13 -0.46315022
v -1.61888402 0.284 0.45064469
v -0.40423226999999995 0.284 -0.46315022
v -2.3523246700000002 0.284 -0.52427316
v -1.13767292 0.284 -1.43806807
v -2.3523246700000002 0.13 -0.52427316
v -1.13767292 0.13 -1.43806807
vt 0.375000 0.000000
vt 0.625000 0.000000
vt 0.375000 0.250000
vt 0.625000 0.250000
vt 0.375000 0.500000
vt 0.625000 0.500000
vt 0.375000 0.750000
vt 0.625000 0.750000
vt 0.375000 1.000000
vt 0.625000 1.000000
vt 0.875000 0.000000
vt 0.875000 0.250000
vt 0.125000 0.000000
vt 0.125000 0.250000
vn 0.601181 0.000000 0.799113
vn 0.601181 0.000000 0.799113
vn 0.601181 0.000000 0.799113
vn 0.601181 0.000000 0.799113
vn 0.000000 1.000000 0.000000
vn 0.000000 1.000000 0.000000
vn 0.000000 1.000000 0.000000
vn 0.000000 1.000000 0.000000
vn -0.601181 0.000000 -0.799113
vn -0.601181 0.000000 -0.799113
vn -0.601181 0.000000 -0.799113
vn -0.601181 0.000000 -0.799113
vn 0.000000 -1.000000 0.000000
vn 0.000000 -1.000000 0.000000
vn 0.000000 -1.000000 0.000000
vn 0.000000 -1.000000 0.000000
vn 0.799113 0.000000 -0.601181
vn 0.799113 0.000000 -0.601181
vn 0.799113 0.000000 -0.601181
vn 0.799113 0.000000 -0.601181
vn -0.799113 0.000000 0.601181
vn -0.799113 0.000000 0.601181
vn -0.799113 0.000000 0.601181
vn -0.799113 0.000000 0.601181
s off
g pCube3
usemtl initialShadingGroup
f 17/29/49 18/30/50 20/32/51 19/31/52
f 19/31/53 20/32/54 22/34/55 21/33/56
f 21/33/57 22/34/58 24/36/59 23/35/60
f 23/35/61 24/36/62 18/38/63 17/37/64
f 18/30/65 24/39/66 22/40/67 20/32/68
f 23/41/69 17/29/70 19/31/71 21/42/72
g default
v -1.8055107799999999 0.284 0.5730149999999999
v -0.57744358 0.284 -0.33112878
v -1.8055107799999999 0.43799999999999994 0.5730149999999999
v -0.57744358 0.43799999999999994 -0.33112878
v -2.5288258 0.43799999999999994 -0.40943876
v -1.3007586 0.43799999999999994 -1.31358253
v -2.5288258 0.284 -0.40943876
v -1.3007586 0.284 -1.31358253
vt 0.375000 0.000000
vt 0.625000 0.000000
vt 0.375000 0.250000
vt 0.625000 0.250000
vt 0.375000 0.500000
vt 0.625000 0.500000
vt 0.375000 0.750000
vt 0.625000 0.750000
vt 0.375000 1.000000
vt 0.625000 1.000000
vt 0.875000 0.000000
vt 0.875000 0.250000
vt 0.125000 0.000000
vt 0.125000 0.250000
vn 0.592881 0.000000 0.805290
vn 0.592881 0.000000 0.805290
vn 0.592881 0.000000 0.805290
vn 0.592881 0.000000 0.805290
vn 0.000000 1.000000 0.000000
vn 0.000000 1.000000 0.000000
vn 0.000000 1.000000 0.000000
vn 0.000000 1.000000 0.000000
vn -0.592881 0.000000 -0.805290
vn -0.592881 0.000000 -0.805290
vn -0.592881 0.000000 -0.805290
vn -0.592881 0.000000 -0.805290
vn 0.000000 -1.000000 0.000000
vn 0.000000 -1.000000 0.000000
vn 0.000000 -1.000000 0.000000
vn 0.000000 -1.000000 0.000000
vn 0.805290 0.000000 -0.592881
vn 0.805290 0.000000 -0.592881
vn 0.805290 0.000000 -0.592881
vn 0.805290 0.000000 -0.592881
vn -0.805290 0.000000 0.592881
vn -0.805290 0.000000 0.592881
vn -0.805290 0.000000 0.592881
vn -0.805290 0.000000 0.592881
s off
g pCube4
usemtl initialShadingGroup
f 25/43/73 26/44/74 28/46/75 27/45/76
f 27/45/77 28/46/78 30/48/79 29/47/80
f 29/47/81 30/48/82 32/50/83 31/49/84
f 31/49/85 32/50/86 26/52/87 25/51/88
f 26/44/89 32/53/90 30/54/91 28/46/92
f 31/55/93 25/43/94 27/45/95 29/56/96
g default
v -1.88388805 0.43799999999999994 -0.08869918
v -1.46697765 0.43799999999999994 -0.37895719
v -1.88388805 0.948 -0.08869918
v -1.46697765 0.948 -0.37895719
v -2.17414606 0.948 -0.5056095899999999
v -1.75723566 0.948 -0.7958676
v -2.17414606 0.43799999999999994 -0.5056095899999999
v -1.75723566 0.43799999999999994 -0.7958676
vt 0.375000 0.000000
vt 0.625000 0.000000
vt 0.375000 0.250000
vt 0.625000 0.250000
vt 0.375000 0.500000
vt 0.625000 0.500000
vt 0.375000 0.750000
vt 0.625000 0.750000
vt 0.375000 1.000000
vt 0.625000 1.000000
vt 0.875000 0.000000
vt 0.875000 0.250000
vt 0.125000 0.000000
vt 0.125000 0.250000
vn 0.571374 0.000000 0.820690
vn 0.571374 0.000000 0.820690
vn 0.571374 0.000000 0.820690
vn 0.571374 0.000000 0.820690
vn 0.000000 1.000000 0.000000
vn 0.000000 1.000000 0.000000
vn 0.000000 1.000000 0.000000
vn 0.000000 1.000000 0.000000
vn -0.571374 0.000000 -0.820690
vn -0.571374 0.000000 -0.820690
vn -0.571374 0.000000 -0.820690
vn -0.571374 0.000000 -0.820690
vn 0.000000 -1.000000 0.000000
vn 0.000000 -1.000000 0.000000
vn 0.000000 -1.000000 0.000000
vn 0.000000 -1.000000 0.000000
vn 0.820690 0.000000 -0.571374
vn 0.820690 0.000000 -0.571374
vn 0.820690 0.000000 -0.571374
vn 0.820690 0.000000 -0.571374
vn -0.820690 0.000000 0.571374
vn -0.820690 0.000000 0.571374
vn -0.820690 0.000000 0.571374
vn -0.820690 0.000000 0.571374
s off
g pCube5
usemtl initialShadingGroup
f 33/57/97 34/58/98 36/60/99 35/59/100
f 35/59/101 36/60/102 38/62/103 37/61/104
f 37/61/105 38/62/106 40/64/107 39/63/108
f 39/63/109 40/64/110 34/66/111 33/65/112
f 34/58/113 40/67/114 38/68/115 36/60/116
f 39/69/117 33/57/118 35/59/119 37/70/120
g default
v 0.8003829899999999 -0.03 0.7525586599999999
v 1.55464381 -0.03 0.71915776
v 0.8003829899999999 0.424 0.7525586599999999
v 1.55464381 0.424 0.71915776
v 0.7803866899999999 0.424 0.30100119
v 1.5346475000000002 0.424 0.26760029
v 0.7803866899999999 -0.03 0.30100119
v 1.5346475000000002 -0.03 0.26760029
vt 0.375000 0.000000
vt 0.625000 0.000000
vt 0.375000 0.250000
vt 0.625000 0.250000
vt 0.375000 0.500000
vt 0.625000 0.500000
vt 0.375000 0.750000
vt 0.625000 0.750000
vt 0.375000 1.000000
vt 0.625000 1.000000
vt 0.875000 0.000000
vt 0.875000 0.250000
vt 0.125000 0.000000
vt 0.125000 0.250000
vn 0.044240 0.000000 0.999021
vn 0.044240 0.000000 0.999021
vn 0.044240 0.000000 0.999021
vn 0.044240 0.000000 0.999021
vn 0.000000 1.000000 0.000000
vn 0.000000 1.000000 0.000000
vn 0.000000 1.000000 0.000000
vn 0.000000 1.000000 0.000000
vn -0.044240 0.000000 -0.999021
vn -0.044240 0.000000 -0.999021
vn -0.044240 0.000000 -0.999021
vn -0.044240 0.000000 -0.999021
vn 0.000000 -1.000000 0.000000
vn 0.000000 -1.000000 0.000000
vn 0.000000 -1.000000 0.000000
vn 0.000000 -1.000000 0.000000
vn 0.999021 0.000000 -0.044240
vn 0.999021 0.000000 -0.044240
vn 0.999021 0.000000 -0.044240
vn 0.999021 0.000000 -0.044240
vn -0.999021 0.000000 0.044240
vn -0.999021 0.000000 0.044240
vn -0.999021 0.000000 0.044240
vn -0.999021 0.000000 0.044240
s off
g pCube6
usemtl initialShadingGroup
f 41/71/121 42/72/122 44/74/123 43/73/124
f 43/73/125 44/74/126 46/76/127 45/75/128
f 45/75/129 46/76/130 48/78/131 47/77/132
f 47/77/133 48/78/134 42/80/135 41/79/136
f 42/72/137 48/81/138 46/82/139 44/74/140
f 47/83/141 41/71/142 43/73/143 45/84/144
g default
v 0.24958221000000003 -0.03 -0.5719908499999999
v 1.2591566 -0.03 0.10581114
v 0.24958221000000003 0.13 -0.5719908499999999
v 1.2591566 0.13 0.10581114
v 0.7584911099999999 0.13 -1.3300018900000001
v 1.7680654999999998 0.13 -0.65219989
v 0.7584911099999999 -0.03 -1.3300018900000001
v 1.7680654999999998 -0.03 -0.65219989
vt 0.375000 0.000000
vt 0.625000 0.000000
vt 0.375000 0.250000
vt 0.625000 0.250000
vt 0.375000 0.500000
vt 0.625000 0.500000
vt 0.375000 0.750000
vt 0.625000 0.750000
vt 0.375000 1.000000
vt 0.625000 1.000000
vt 0.875000 0.000000
vt 0.875000 0.250000
vt 0.125000 0.000000
vt 0.125000 0.250000
vn -0.557403 0.000000 0.830242
vn -0.557403 0.000000 0.830242
vn -0.557403 0.000000 0.830242
vn -0.557403 0.000000 0.830242
vn 0.000000 1.000000 0.000000
vn 0.000000 1.000000 0.000000
vn 0.000000 1.000000 0.000000
vn 0.000000 1.000000 0.000000
vn 0.557403 0.000000 -0.830242
vn 0.557403 0.000000 -0.830242
vn 0.557403 0.000000 -0.830242
vn 0.557403 0.000000 -0.830242
vn 0.000000 -1.000000 0.000000
vn 0.000000 -1.000000 0.000000
vn 0.000000 -1.000000 0.000000
vn 0.000000 -1.000000 0.000000
vn 0.830242 0.000000 0.557403
vn 0.830242 0.000000 0.557403
vn 0.830242 0.000000 0.557403
vn 0.830242 0.000000 0.557403
vn -0.830242 0.000000 -0.557403
vn -0.830242 0.000000 -0.557403
vn -0.830242 0.000000 -0.557403
vn -0.830242 0.000000 -0.557403
s off
g pCube7
usemtl initialShadingGroup
f 49/85/145 50/86/146 52/88/147 51/87/148
f 51/87/149 52/88/150 54/90/151 53/89/152
f 53/89/153 54/90/154 56/92/155 55/91/156
f 55/91/157 56/92/158 50/94/159 49/93/160
f 50/86/161 56/95/162 54/96/163 52/88/164
f 55/97/165 49/85/166 51/87/167 53/98/168
g default
v 0.62606161 -0.03 -1.8831814800000002
v 1.0326202 -0.03 -1.68112676
v 0.62606161 0.884 -1.8831814800000002
v 1.0326202 0.884 -1.68112676
v 0.8263361100000001 0.884 -2.28615806
v 1.23289471 0.884 -2.08410334
v 0.8263361100000001 -0.03 -2.28615806
v 1.23289471 -0.03 -2.08410334
vt 0.375000 0.000000
vt 0.625000 0.000000
vt 0.375000 0.250000
vt 0.625000 0.250000
vt 0.375000 0.500000
vt 0.625000 0.500000
vt 0.375000 0.750000
vt 0.625000 0.750000
vt 0.375000 1.000000
vt 0.625000 1.000000
vt 0.875000 0.000000
vt 0.875000 0.250000
vt 0.125000 0.000000
vt 0.125000 0.250000
vn -0.445054 0.000000 0.895504
vn -0.445054 0.000000 0.895504
vn -0.445054 0.000000 0.895504
vn -0.445054 0.000000 0.895504
vn 0.000000 1.000000 0.000000
vn 0.000000 1.000000 0.000000
vn 0.000000 1.000000 0.000000
vn 0.000000 1.000000 0.000000
vn 0.445054 0.000000 -0.895504
vn 0.445054 0.000000 -0.895504
vn 0.445054 0.000000 -0.895504
vn 0.445054 0.000000 -0.895504
vn 0.000000 -1.000000 0.000000
vn 0.000000 -1.000000 0.000000
vn 0.000000 -1.000000 0.000000
vn 0.000000 -1.000000 0.000000
vn 0.895503 0.000000 0.445054
vn 0.895503 0.000000 0.445054
vn 0.895503 0.000000 0.445054
vn 0.895503 0.000000 0.445054
vn -0.895503 0.000000 -0.445054
vn -0.895503 0.000000 -0.445054
vn -0.895503 0.000000 -0.445054
vn -0.895503 0.000000 -0.445054
s off
g pCube8
usemtl initialShadingGroup
f 57/99/169 58/100/170 60/102/171 59/101/172
f 59/101/173 60/102/174 62/104/175 61/103/176
f 61/103/177 62/104/178 64/106/179 63/105/180
f 63/105/181 64/106/182 58/108/183 57/107/184
f 58/100/185 64/109/186 62/110/187 60/102/188
f 63/111/189 57/99/190 59/101/191 61/112/192
g default
v 1.78383643 -0.03 0.11537439
v 2.23555531 -0.03 0.13131333
v 1.78383643 0.578 0.11537439
v 2.23555531 0.578 0.13131333
v 1.7997401 0.578 -0.33534512
v 2.2514589899999997 0.578 -0.31940618
v 1.7997401 -0.03 -0.33534512
v 2.2514589899999997 -0.03 -0.31940618
vt 0.375000 0.000000
vt 0.625000 0.000000
vt 0.375000 0.250000
vt 0.625000 0.250000
vt 0.375000 0.500000
vt 0.625000 0.500000
vt 0.375000 0.750000
vt 0.625000 0.750000
vt 0.375000 1.000000
vt 0.625000 1.000000
vt 0.875000 0.000000
vt 0.875000 0.250000
vt 0.125000 0.000000
vt 0.125000 0.250000
vn -0.035263 0.000000 0.999378
vn -0.035263 0.000000 0.999378
vn -0.035263 0.000000 0.999378
vn -0.035263 0.000000 0.999378
vn 0.000000 1.000000 0.000000
vn 0.000000 1.000000 0.000000
vn 0.000000 1.000000 0.000000
vn 0.000000 1.000000 0.000000
vn 0.035263 0.000000 -0.999378
vn 0.035263 0.000000 -0.999378
vn 0.035263 0.000000 -0.999378
vn 0.035263 0.000000 -0.999378
vn 0.000000 -1.000000 0.000000
vn 0.000000 -1.000000 0.000000
vn 0.000000 -1.000000 0.000000
vn 0.000000 -1.000000 0.000000
vn 0.999378 0.000000 0.035263
vn 0.999378 0.000000 0.035263
vn 0.999378 0.000000 0.035263
vn 0.999378 0.000000 0.035263
vn -0.999378 0.000000 -0.035263
vn -0.999378 0.000000 -0.035263
vn -0.999378 0.000000 -0.035263
vn -0.999378 0.000000 -0.035263
s off
g pCube9
usemtl initialShadingGroup
f 65/113/193 66/114/194 68/116/195 67/115/196
f 67/115/197 68/116/198 70/118/199 69/117/200
f 69/117/201 70/118/202 72/120/203 71/119/204
f 71/119/205 72/120/206 66/122/207 65/121/208
f 66/114/209 72/123/210 70/124/211 68/116/212
f 71/125/213 65/113/214 67/115/215 69/126/216
g default
v -2.6275881958 -0.035 2.5687704468
v 2.6275881958 -0.035 2.5687704468
v -2.6275881958 -0.025 2.5687704468
v 2.6275881958 -0.025 2.5687704468
v -2.6275881958 -0.025 -2.5687704468
v 2.6275881958 -0.025 -2.5687704468
v -2.6275881958 -0.035 -2.5687704468
v 2.6275881958 -0.035 -2.5687704468
vt 0.375000 0.000000
vt 0.625000 0.000000
vt 0.375000 0.250000
vt 0.625000 0.250000
vt 0.375000 0.500000
vt 0.625000 0.500000
vt 0.375000 0.750000
vt 0.625000 0.750000
vt 0.375000 1.000000
vt 0.625000 1.000000
vt 0.875000 0.000000
vt 0.875000 0.250000
vt 0.125000 0.000000
vt 0.125000 0.250000
vn 0.000000 0.000000 1.000000
vn 0.000000 0.000000 1.000000
vn 0.000000 0.000000 1.000000
vn 0.000000 0.000000 1.000000
vn 0.000000 1.000000 0.000000
vn 0.000000 1.000000 0.000000
vn 0.000000 1.000000 0.000000
vn 0.000000 1.000000 0.000000
vn 0.000000 0.000000 -1.000000
vn 0.000000 0.000000 -1.000000
vn 0.000000 0.000000 -1.000000
vn 0.000000 0.000000 -1.000000
vn 0.000000 -1.000000 0.000000
vn 0.000000 -1.000000 0.000000
vn 0.000000 -1.000000 0.000000
vn 0.000000 -1.000000 0.000000
vn 1.000000 0.000000 0.000000
vn 1.000000 0.000000 0.000000
vn 1.000000 0.000000 0.000000
vn 1.000000 0.000000 0.000000
vn -1.000000 0.000000 0.000000
vn -1.000000 0.000000 0.000000
vn -1.000000 0.000000 0.000000
vn -1.000000 0.000000 0.000000
s off
g pCube10
usemtl initialShadingGroup
f 73/127/217 74/128/218 76/130/219 75/129/220
f 75/129/221 76/130/222 78/132/223 77/131/224
f 77/131/225 78/132/226 80/134/227 79/133/228
f 79/133/229 80/134/230 74/136/231 73/135/232
f 74/128/233 80/137/234 78/138/235 76/130/236
f 79/139/237 73/127/238 75/129/239 77/140/240
